<svg xmlns="http://www.w3.org/2000/svg" xmlns:xlink="http://www.w3.org/1999/xlink" width="48" height="48" x="0" y="0" enable-background="new 0 0 48 48" version="1.1" viewBox="0 0 48 48" xml:space="preserve"><g id="Layer_2" display="none"><g display="inline" opacity=".5"><polygon fill="#0034DB" points="148 -51 148 -1 -56 -1 -56 51 451 51 451 1.5 451 -1.5 451 -51"/></g></g><g id="Layer_1"><path d="M46.693,21.499c0-1.624-1.315-2.945-2.938-2.945H43.73v-3.509c0-1.623-1.312-2.92-2.935-2.92h-4.976 c-1.623,0-2.928,1.297-2.928,2.92v5.965H15.109v-5.965c0-1.623-1.305-2.92-2.928-2.92H7.205c-1.623,0-2.935,1.297-2.935,2.92v3.509 H4.245c-1.623,0-2.938,1.321-2.938,2.945v3.002c0,1.624,1.315,2.945,2.938,2.945H4.27v3.509c0,1.623,1.312,2.92,2.935,2.92h4.976 c1.623,0,2.928-1.297,2.928-2.92V24.99h17.782v5.965c0,1.623,1.305,2.92,2.928,2.92h4.976c1.623,0,2.935-1.297,2.935-2.92v-3.509 h0.025c1.623,0,2.938-1.321,2.938-2.945V21.499z"/></g></svg>